<svg xmlns="http://www.w3.org/2000/svg" viewBox="0 0 128 128" height="128" width="128"><g fill="none" stroke="#1a5c93" stroke-width=".8" stroke-miterlimit="10"><path d="M111.832 107.78h-95.66c-5.258 0-9.52-4.262-9.52-9.53V29.73c0-5.26 4.262-9.51 9.52-9.51h95.66a9.506 9.506 0 0 1 9.516 9.51v68.52c0 5.268-4.258 9.53-9.516 9.53z" stroke-width="5.303304000000001"/><path d="M29.457 52.33l5.062 24.62 12.854-24.62m7.89 0L51.36 76.95m24.23-23.066c-.726-.553-1.878-1.554-5.048-1.554-3.166 0-6.56 2.225-7.072 5.473-1.032 6.51 12.243 4.952 11.05 12.48-.853 5.387-6.01 6.666-8.587 6.666-2.568 0-4.78-.778-5.724-1.85m39.525 1.85l-5.792-24.62-13.595 24.62m3.37-6.113h14.583" stroke-linecap="round" stroke-linejoin="round" stroke-width="5.303304000000001"/></g></svg>